<svg id="Camada_1" data-name="Camada 1" xmlns="http://www.w3.org/2000/svg" viewBox="0 0 1148.84 548.36"><defs><style>.cls-1{fill:#0fffc6;}</style></defs><title>logo-omn-light-blue</title><path class="cls-1" d="M1212.71,856.73l172.86,230.94V725.82h-890a70,70,0,0,0-70,70v408.36a70,70,0,0,0,70,70h717.13ZM801,1061.79a154.56,154.56,0,0,1-25.43,47.94q-17.57,22.51-40.29,34a107.75,107.75,0,0,1-96.79,0q-22.74-11.49-40.29-34a154.38,154.38,0,0,1-25.44-47.94,180.35,180.35,0,0,1-8.78-56.5A178.23,178.23,0,0,1,572.79,949a155,155,0,0,1,25.44-47.72q17.55-22.5,40.29-34.21a105.86,105.86,0,0,1,96.79,0Q758,878.79,775.6,901.3A155.23,155.23,0,0,1,801,949a178.23,178.23,0,0,1,8.78,56.27A180.35,180.35,0,0,1,801,1061.79Zm287.88,93.41V1031.4L1029,1155.2H991.23l-64.38-128.75V1155.2H883.18V856.73l126.5,238.59,122.9-239V1155.2Z" transform="translate(-425.58 -725.82)"/><path class="cls-1" d="M742.73,930.11a83.93,83.93,0,0,0-25.21-22.73,60.41,60.41,0,0,0-61.22,0,83.93,83.93,0,0,0-25.21,22.73A115.36,115.36,0,0,0,614,963.87a139.31,139.31,0,0,0,0,82.84,118.46,118.46,0,0,0,17.11,34,82.69,82.69,0,0,0,25.21,23,60.41,60.41,0,0,0,61.22,0,82.69,82.69,0,0,0,25.21-23,118.46,118.46,0,0,0,17.11-34,139.31,139.31,0,0,0,0-82.84A115.36,115.36,0,0,0,742.73,930.11Z" transform="translate(-425.58 -725.82)"/><path class="cls-1" d="M1504.42,725.82h-75.18v492.4L1256.37,987.73v286.45h248.05a70,70,0,0,0,70-70V795.82A70,70,0,0,0,1504.42,725.82Z" transform="translate(-425.58 -725.82)"/></svg>